<svg viewBox="0 0 137 128" fill="none" xmlns="http://www.w3.org/2000/svg" aria-hidden="true">
  <path fill="#0251af" d="M18.2148 91.5371C8.17957 91.5374 9.55764e-05 99.7347 4.79814e-06 109.769C5.23674e-06 119.803 8.17934 127.999 18.2139 128C25.0042 128 30.8461 124.283 33.9658 118.845L100.499 118.845C109.017 118.845 117.066 115.48 123.069 109.47L123.068 109.469C129.131 103.438 132.431 95.3833 132.431 86.8818C132.431 69.2479 118.119 54.9191 100.5 54.9189L84.2373 54.9189C81.1114 49.501 75.3199 45.7637 68.499 45.7637C61.7085 45.7638 55.8656 49.4805 52.7461 54.9189L45.6445 54.9189C41.9507 54.9189 38.5355 53.5176 35.9121 50.9004L35.6699 50.6504C33.2085 48.0372 31.8604 44.6868 31.8604 41.1133C31.8604 33.4813 38.0308 27.3069 45.6445 27.3066L103.048 27.3066C106.185 32.7299 112.009 36.4629 118.785 36.4629C128.82 36.4626 137 28.2653 137 18.2314C137 8.19714 128.82 0.000243635 118.785 -5.19226e-06C111.995 -4.89544e-06 106.151 3.71685 103.031 9.15527L45.6445 9.15527C28.0185 9.15552 13.7149 23.4913 13.7148 41.1182C13.7148 49.6415 17.0721 57.6969 23.0752 63.707L23.0752 63.7061C29.0993 69.7766 37.1487 73.0811 45.6455 73.0811L52.7617 73.0811C55.8876 78.4991 61.6791 82.2363 68.5 82.2363C75.2905 82.2363 81.1323 78.5193 84.252 73.0811L100.5 73.0811C108.111 73.081 114.285 79.252 114.285 86.8877C114.285 90.5658 112.855 94.0057 110.247 96.6592C107.605 99.2632 104.171 100.693 100.501 100.693L33.9512 100.693C30.8139 95.2704 24.9913 91.5371 18.2148 91.5371Z"/>
</svg>
